# AST/ASF file generated using VICON BodyLanguage
# -----------------------------------------------
:version 1.10
:name VICON
:units
  mass 1.0
  length 0.45
  angle deg
:documentation
   .ast/.asf automatically generated from VICON data using
   VICON BodyBuilder and BodyLanguage model FoxedUp or BRILLIANT.MOD
:root
   order TX TY TZ RX RY RZ
   axis XYZ
   position 0 0 0  
   orientation 0 0 0 
:bonedata
  begin
     id 1 
     name lhipjoint
     direction 0.734343 -0.627749 0.258209 
     length 2.5437 
     axis 0 0 0  XYZ
  end
  begin
     id 2 
     name lfemur
     direction 0.34202 -0.939693 0  
     length 6.7391  
     axis 0 0 20  XYZ
    dof rx ry rz
    limits (-160.0 20.0)
           (-70.0 70.0)
           (-60.0 70.0)
  end
  begin
     id 3 
     name ltibia
     direction 0.34202 -0.939693 0   
     length 7.21536   
     axis 0 0 20   XYZ
    dof rx
    limits (-10.0 170.0)
  end
  begin
     id 4 
     name lfoot
     direction 0.0489572 -0.134509 0.989702   
     length 1.61313   
     axis -90 7.62852e-016 20   XYZ
    dof rx rz
    limits (-45.0 90.0)
           (-70.0 20.0)
  end
  begin
     id 5 
     name ltoes
     direction 1.53451e-011 -4.21692e-011 1   
     length 0.823104   
     axis -90 7.62852e-016 20   XYZ
    dof rx
    limits (-90.0 20.0)
  end
  begin
     id 6 
     name rhipjoint
     direction -0.746398 -0.615468 0.253157   
     length 2.59446  
     axis 0 0 0  XYZ 
  end
  begin
     id 7 
     name rfemur
     direction -0.34202 -0.939693 0   
     length 6.7075   
     axis 0 0 -20   XYZ
    dof rx ry rz
    limits (-160.0 20.0)
           (-70.0 70.0)
           (-70.0 60.0)
  end
  begin
     id 8 
     name rtibia
     direction -0.34202 -0.939693 0   
     length 7.27262   
     axis 0 0 -20   XYZ
    dof rx
    limits (-10.0 170.0)
 end
 begin
     id 9 
     name rfoot
     direction -0.0455203 -0.125066 0.991104   
     length 1.91095  
     axis -90 -7.62852e-016 -20   XYZ
    dof rx rz
    limits (-45.0 90.0)
           (-20.0 70.0)
  end
  begin
     id 10 
     name rtoes
     direction -1.53601e-011 -4.21913e-011 1   
     length 0.969037   
     axis -90 -7.62852e-016 -20   XYZ
    dof rx
    limits (-90.0 20.0)
  end
  begin
     id 11 
     name lowerback
     direction 0.0181546 0.999122 -0.0377542   
     length 1.99916   
     axis 0 0 0   XYZ
    dof rx ry rz
    limits (-20.0 45.0)
           (-30.0 30.0)
           (-30.0 30.0)
  end
  begin
     id 12 
     name upperback
     direction 0.0203486 0.99589 0.0882534   
     length 1.951   
     axis 0 0 0   XYZ
    dof rx ry rz
    limits (-20.0 45.0)
           (-30.0 30.0)
           (-30.0 30.0)
  end
  begin
     id 13 
     name thorax
     direction 0.0131685 0.994241 0.106355   
     length 1.97461   
     axis 0 0 0   XYZ
    dof rx ry rz
    limits (-20.0 45.0)
           (-30.0 30.0)
           (-30.0 30.0)
  end
  begin
     id 14 
     name lowerneck
     direction -0.0281395 0.999325 0.023617   
     length 1.7959   
     axis 0 0 0   XYZ
    dof rx ry rz
    limits (-20.0 45.0)
           (-30.0 30.0)
           (-30.0 30.0)
  end
  begin
     id 15 
     name upperneck
     direction 0.0288721 0.991984 -0.123019   
     length 1.79917   
     axis 0 0 0   XYZ
    dof rx ry rz
    limits (-20.0 45.0)
           (-30.0 30.0)
           (-30.0 30.0)
  end
  begin
     id 16
     name head
     direction 0.0133797 0.998944 -0.0439492  
     length 1.80902  
     axis 0 0 0   XYZ
    dof rx ry rz
    limits (-20.0 45.0)
           (-30.0 30.0)
           (-30.0 30.0)
  end
  begin
     id 17 
     name lclavicle
     direction 0.919195 0.377107 0.113449  
     length 3.17815  
     axis 0 0 0   XYZ
    dof ry rz
    limits (-20.0 10.0)
           (0.0 20.0)
  end
  begin
     id 18 
     name lhumerus
     direction 1 -4.48959e-011 2.13129e-027   
     length 4.84137   
     axis 180 -30 -90   XYZ
    dof rx ry rz
    limits (-60.0 90.0)
           (-90.0 90.0)
           (-90.0 90.0)
  end
  begin
     id 19
     name lradius
     direction 1 -4.48957e-011 -6.30627e-028   
     length 3.2452   
     axis 180 -30 -90   XYZ
    dof rx
    limits (-10.0 170.0)
  end
  begin
     id 20
     name lwrist
     direction 1 -4.4901e-011 9.13299e-027   
     length 1.6226   
     axis -6.84618e-015 90 90   XYZ
    dof ry
    limits (-180.0 0.0)
 end
  begin
     id 21 
     name lhand
     direction 1 -4.48816e-011 1.82293e-026   
     length 0.521221   
     axis -1.16502e-014 90 90   XYZ
    dof rx rz
    limits (-90.0 90.0)
           (-45.0 45.0)
  end
  begin
     id 22 
     name lfingers
     direction 1 -4.49108e-011 3.65687e-026   
     length 0.420221   
     axis -2.33008e-014 90 90   XYZ
    dof rx
    limits (0.0 90.0)
  end
  begin
     id 23
     name lthumb
     direction 0.707107 -6.34943e-011 0.707107   
     length 0.603356   
     axis -90 45 5.69224e-014   XYZ
    dof rx rz
    limits (-45.0 45.0)
           (-45.0 45.0)
  end
  begin
     id 24 
     name rclavicle
     direction -0.90847 0.38596 0.160368   
     length 3.12973  
     axis 0 0 0   XYZ 
    dof ry rz
    limits (-10.0 20.0)
           (-20.0 0.0)
  end
  begin
     id 25 
     name rhumerus
     direction -1 -4.48974e-011 4.47268e-028  
     length 4.72284   
     axis 180 30 90   XYZ
    dof rx ry rz
    limits (-90.0 60.0)
           (-90.0 90.0)
           (-90.0 90.0)
  end
  begin
     id 26 
     name rradius
     direction -1 -4.48969e-011 3.43203e-027   
     length 3.23459   
     axis 180 30 90   XYZ
    dof rx
    limits (-10.0 170.0)
  end
  begin
     id 27 
     name rwrist
     direction -1 -4.48969e-011 9.12911e-027   
     length 1.6173   
     axis -6.84618e-015 -90 -90   XYZ
    dof ry
    limits (-180.0 0.0)
  end
  begin
     id 28
     name rhand
     direction -1 -4.49194e-011 1.83006e-026   
     length 0.307416   
     axis -1.16502e-014 -90 -90   XYZ
    dof rx rz
    limits (-90.0 90.0)
           (-45.0 45.0)
  end
  begin
     id 29
     name rfingers
     direction -1 -4.48423e-011 3.63103e-026   
     length 0.247847   
     axis -2.33008e-014 -90 -90   XYZ
    dof rx
    limits (0.0 90.0)
  end
  begin
     id 30
     name rthumb
     direction -0.707107 -6.34802e-011 0.707107   
     length 0.35586   
     axis -90 -45 -5.69224e-014   XYZ
    dof rx rz
    limits (-45.0 45.0)
           (-45.0 45.0)
  end
:hierarchy
  begin
    root lhipjoint rhipjoint lowerback
    lhipjoint lfemur
    lfemur ltibia
    ltibia lfoot
    lfoot ltoes
    rhipjoint rfemur
    rfemur rtibia
    rtibia rfoot
    rfoot rtoes
    lowerback upperback
    upperback thorax
    thorax lowerneck lclavicle rclavicle
    lowerneck upperneck
    upperneck head
    lclavicle lhumerus
    lhumerus lradius
    lradius lwrist
    lwrist lhand lthumb
    lhand lfingers
    rclavicle rhumerus
    rhumerus rradius
    rradius rwrist
    rwrist rhand rthumb
    rhand rfingers
  end

#!OML:ASF H:\Terrain\Patient Classification 1\Animal1\Tuesday\Animal1.ASF
:FULLY-SPECIFIED
:DEGREES
917
root 11.4334 16.5657 -11.445 9.04338 -4.05394 1.34199
lowerback -0.540158 -0.38624 -0.326692
upperback -1.04097 -0.515057 0.0445651
thorax -0.758975 -0.255027 0.229313
lowerneck -8.79146 1.40997 -4.87004
upperneck 20.7859 1.14221 7.77164
head 7.74074 0.888101 3.49922
rclavicle 2.65874e-015 -5.36719e-015
rhumerus -7.31362 31.6746 -51.7849
rradius 106.293
rwrist -45.852
rhand -34.659 36.9859
rfingers 7.12502
rthumb -7.81565 7.15032
lclavicle 2.65874e-015 -5.36719e-015
lhumerus -20.1737 -2.71549 47.2485
lradius 89.8396
lwrist -5.89414
lhand 2.47722 37.8622
lfingers 7.12502
lthumb 27.9609 65.8
rfemur -20.3181 25.2369 16.3753
rtibia 23.7214
rfoot -18.7938 -37.1358
rtoes 27.9389
lfemur -19.7447 -24.8278 -13.9692
ltibia 19.414
lfoot -13.1943 24.7475
ltoes -0.740878
918
root 11.432 16.5663 -11.4449 9.04997 -3.92665 1.13747
lowerback -0.495386 -0.420344 -0.120178
upperback -1.03707 -0.560208 0.116677
thorax -0.781025 -0.278846 0.187794
lowerneck -8.95099 1.38588 -4.98858
upperneck 20.9117 1.11262 7.85211
head 7.81147 0.87529 3.55012
rclavicle -5.8393e-015 6.95746e-015
rhumerus -7.20883 31.6398 -51.6688
rradius 106.339
rwrist -45.9622
rhand -34.3878 36.5334
rfingers 7.12502
rthumb -7.55385 6.6883
lclavicle -5.8393e-015 6.95746e-015
lhumerus -20.2132 -2.73277 47.2688
lradius 89.7815
lwrist -5.83999
lhand 2.60368 38.2486
lfingers 7.12502
lthumb 28.0818 66.1666
rfemur -20.2158 25.1492 16.6355
rtibia 23.6067
rfoot -18.9839 -37.0053
rtoes 28.5235
lfemur -19.8346 -24.8205 -13.7189
ltibia 19.5565
lfoot -13.4623 24.5254
ltoes 0.0721577
919
root 11.4316 16.5673 -11.4427 9.12995 -3.85515 1.03039
lowerback -0.539447 -0.449812 -0.0235153
upperback -1.09139 -0.59909 0.181506
thorax -0.812074 -0.298726 0.199942
lowerneck -8.86238 1.35059 -5.17579
upperneck 20.851 1.08106 7.92179
head 7.7749 0.850632 3.59947
rclavicle -1.9133e-015 -4.57205e-015
rhumerus -7.15157 31.7369 -51.4578
rradius 106.37
rwrist -46.2372
rhand -33.9067 35.6441
rfingers 7.12502
rthumb -7.08948 5.78285
lclavicle -1.9133e-015 -4.57205e-015
lhumerus -20.3796 -2.78527 47.3455
lradius 89.7406
lwrist -5.79305
lhand 2.5461 38.2993
lfingers 7.12502
lthumb 28.0267 66.2263
rfemur -20.2228 25.0365 16.7394
rtibia 23.5107
rfoot -19.1703 -36.828
rtoes 28.8573
lfemur -20.0095 -24.8448 -13.549
ltibia 19.6856
lfoot -13.5752 24.5239
ltoes 0.134442
920
root 11.43 16.568 -11.4418 9.1863 -3.79512 1.00038
lowerback -0.513111 -0.477414 -0.0525467
upperback -1.14969 -0.635445 0.241376
thorax -0.885409 -0.316311 0.278103
lowerneck -8.87809 1.37526 -5.20261
upperneck 20.9011 1.12631 7.88354
head 7.79118 0.866913 3.59681
rclavicle 8.57259e-015 9.93923e-015
rhumerus -7.13721 31.8253 -51.2682
rradius 106.419
rwrist -46.3136
rhand -33.8291 35.2301
rfingers 7.12502
rthumb -7.01461 5.36631
lclavicle 8.57259e-015 9.93923e-015
lhumerus -20.597 -2.79651 47.4562
lradius 89.7133
lwrist -5.83753
lhand 2.49629 38.0945
lfingers 7.12502
lthumb 27.9791 66.0293
rfemur -20.2769 25.0623 16.7361
rtibia 23.4798
rfoot -19.5438 -36.7395
rtoes 28.9538
lfemur -20.1337 -24.8622 -13.4767
ltibia 19.7529
lfoot -13.5292 24.605
ltoes -0.670215
921
root 11.4281 16.566 -11.4421 9.18772 -3.74184 1.04749
lowerback -0.477418 -0.514607 -0.151921
upperback -1.15352 -0.684991 0.261333
thorax -0.907685 -0.340101 0.354702
lowerneck -8.92553 1.38064 -5.19724
upperneck 20.926 1.14942 7.80776
head 7.80741 0.872037 3.57398
rclavicle -2.41026e-015 1.37161e-014
rhumerus -7.07139 31.7685 -51.277
rradius 106.425
rwrist -46.2235
rhand -33.8254 35.0738
rfingers 7.12502
rthumb -7.01101 5.20991
lclavicle -2.41026e-015 1.37161e-014
lhumerus -20.7641 -2.76646 47.4853
lradius 89.7196
lwrist -5.78136
lhand 2.27644 37.9128
lfingers 7.12502
lthumb 27.7689 65.8816
rfemur -20.2956 24.9526 16.6986
rtibia 23.5113
rfoot -19.5647 -36.6452
rtoes 29.4064
lfemur -20.1373 -24.8349 -13.5302
ltibia 19.7498
lfoot -13.5064 24.5188
ltoes -1.22961
922
root 11.426 16.5649 -11.4396 9.21322 -3.7731 1.13005
lowerback -0.529912 -0.539536 -0.284006
upperback -1.13159 -0.718316 0.258144
thorax -0.854003 -0.355782 0.424828
lowerneck -8.94742 1.33814 -5.33678
upperneck 20.8375 1.11304 7.83898
head 7.78326 0.84697 3.60292
rclavicle 1.70706e-014 1.25234e-014
rhumerus -6.98448 31.6494 -51.4089
rradius 106.411
rwrist -46.1556
rhand -33.595 34.8565
rfingers 7.12502
rthumb -6.78864 4.98536
lclavicle 1.70706e-014 1.25234e-014
lhumerus -20.8997 -2.68378 47.4367
lradius 89.7641
lwrist -5.61725
lhand 2.17699 37.6889
lfingers 7.12502
lthumb 27.6738 65.6731
rfemur -20.3176 24.8071 16.632
rtibia 23.5173
rfoot -18.9493 -36.6642
rtoes 29.5683
lfemur -20.1474 -24.7985 -13.6264
ltibia 19.7766
lfoot -13.3974 24.4982
ltoes -1.87911
923
root 11.4227 16.5667 -11.4367 9.29814 -3.81057 1.09253
lowerback -0.605287 -0.557686 -0.310079
upperback -1.13302 -0.742302 0.270643
thorax -0.8125 -0.367604 0.451453
lowerneck -9.0787 1.36976 -5.30249
upperneck 20.8547 1.1539 7.84644
head 7.81014 0.871845 3.60578
rclavicle 1.04859e-014 -5.56597e-015
rhumerus -6.97187 31.5283 -51.5974
rradius 106.417
rwrist -46.0989
rhand -33.4468 35.0879
rfingers 7.12502
rthumb -6.64557 5.21222
lclavicle 1.04859e-014 -5.56597e-015
lhumerus -21.0971 -2.68368 47.3204
lradius 89.9398
lwrist -5.42267
lhand 2.06569 37.4102
lfingers 7.12502
lthumb 27.5674 65.4114
rfemur -20.4156 24.8564 16.6422
rtibia 23.5099
rfoot -18.6055 -36.7697
rtoes 29.4063
lfemur -20.2522 -24.8714 -13.5228
ltibia 19.8107
lfoot -13.35 24.6142
ltoes -1.75226
924
root 11.4186 16.5672 -11.4348 9.32546 -3.75047 0.86241
lowerback -0.619385 -0.613525 -0.150406
upperback -1.12149 -0.816433 0.344241
thorax -0.793205 -0.405701 0.43712
lowerneck -9.22661 1.48714 -5.04019
upperneck 20.9599 1.30833 7.67018
head 7.8656 0.951457 3.52093
rclavicle -3.40419e-015 1.2921e-014
rhumerus -6.87874 31.5076 -51.7583
rradius 106.312
rwrist -45.9517
rhand -33.429 35.5096
rfingers 7.12502
rthumb -6.62834 5.63338
lclavicle -3.40419e-015 1.2921e-014
lhumerus -21.3891 -2.70068 47.1872
lradius 90.1676
lwrist -5.1662
lhand 1.8355 37.3571
lfingers 7.12502
lthumb 27.3473 65.3932
rfemur -20.4375 25.0233 16.8808
rtibia 23.5298
rfoot -18.8354 -36.8698
rtoes 29.5486
lfemur -20.2777 -24.8953 -13.2329
ltibia 19.7852
lfoot -13.2842 24.6451
ltoes -1.55689
925
root 11.4155 16.5669 -11.4313 9.2485 -3.70059 0.810605
lowerback -0.573968 -0.68356 -0.1723
upperback -1.06799 -0.909623 0.392481
thorax -0.761977 -0.452044 0.498952
lowerneck -9.33736 1.58061 -4.93562
upperneck 20.9905 1.44392 7.56668
head 7.88887 1.0159 3.48309
rclavicle 7.90169e-015 -1.19271e-015
rhumerus -6.59695 31.5574 -51.7781
rradius 106.115
rwrist -45.8678
rhand -33.355 35.6741
rfingers 7.12502
rthumb -6.55695 5.79563
lclavicle 7.90169e-015 -1.19271e-015
lhumerus -21.7136 -2.61628 47.0679
lradius 90.2935
lwrist -4.79004
lhand 1.96153 37.4614
lfingers 7.12502
lthumb 27.4678 65.4784
rfemur -20.3101 25.0653 16.9985
rtibia 23.541
rfoot -19.0608 -36.8447
rtoes 29.9011
lfemur -20.1584 -24.9649 -13.1992
ltibia 19.7554
lfoot -13.3076 24.7288
ltoes -1.51836
926
root 11.4147 16.5675 -11.4283 9.21923 -3.72109 0.982362
lowerback -0.636187 -0.745287 -0.352066
upperback -1.00756 -0.992004 0.348563
thorax -0.662187 -0.492435 0.553303
lowerneck -9.3451 1.61501 -5.01898
upperneck 20.8845 1.50278 7.60702
head 7.84951 1.04106 3.51294
rclavicle -6.21202e-015 2.38542e-015
rhumerus -6.24566 31.5552 -51.7728
rradius 105.999
rwrist -45.8543
rhand -33.4963 35.819
rfingers 7.12502
rthumb -6.69331 5.94478
lclavicle -6.21202e-015 2.38542e-015
lhumerus -22.1092 -2.53564 46.8684
lradius 90.446
lwrist -4.45485
lhand 2.44459 37.5464
lfingers 7.12502
lthumb 27.9297 65.4892
rfemur -20.2608 24.9913 16.8433
rtibia 23.5381
rfoot -18.988 -36.7813
rtoes 29.9126
lfemur -20.1038 -25.1291 -13.3764
ltibia 19.743
lfoot -13.5771 24.8641
ltoes -0.764007
927
root 11.4138 16.5671 -11.4269 9.19518 -3.74998 1.01997
lowerback -0.693053 -0.794803 -0.370217
upperback -0.948234 -1.05801 0.321055
thorax -0.569 -0.52579 0.533818
lowerneck -9.26974 1.6428 -5.05989
upperneck 20.7122 1.55229 7.6097
head 7.77473 1.06022 3.51862
rclavicle -8.24956e-015 2.98177e-015
rhumerus -6.03153 31.4881 -51.8675
rradius 106.018
rwrist -45.7298
rhand -33.9527 36.2332
rfingers 7.12502
rthumb -7.13389 6.37341
lclavicle -8.24956e-015 2.98177e-015
lhumerus -22.4968 -2.49327 46.6733
lradius 90.6155
lwrist -4.26518
lhand 2.52953 37.4904
lfingers 7.12502
lthumb 28.0109 65.42
rfemur -20.2532 25.0291 16.8077
rtibia 23.5667
rfoot -18.9938 -36.8572
rtoes 29.8633
lfemur -20.0305 -25.0914 -13.4379
ltibia 19.6879
lfoot -13.5248 24.9066
ltoes -1.33282
928
root 11.4127 16.5671 -11.422 9.19382 -3.77299 0.986644
lowerback -0.746578 -0.827908 -0.295267
upperback -0.901835 -1.10241 0.284191
thorax -0.493123 -0.548839 0.452719
lowerneck -9.33277 1.72706 -4.88042
upperneck 20.656 1.65733 7.53515
head 7.76352 1.1178 3.47178
rclavicle -8.15017e-015 4.96962e-015
rhumerus -5.99781 31.3544 -52.1073
rradius 106.116
rwrist -45.629
rhand -34.0953 36.5727
rfingers 7.12502
rthumb -7.27152 6.71767
lclavicle -8.15017e-015 4.96962e-015
lhumerus -22.78 -2.49824 46.4675
lradius 90.7092
lwrist -4.16919
lhand 2.43514 37.693
lfingers 7.12502
lthumb 27.9207 65.6373
rfemur -20.2421 25.0266 16.8589
rtibia 23.5869
rfoot -18.8215 -36.988
rtoes 29.3939
lfemur -19.9727 -25.1573 -13.4015
ltibia 19.6474
lfoot -13.4698 25.0343
ltoes -1.9362
929
root 11.4117 16.5676 -11.4164 9.245 -3.77409 1.0092
lowerback -0.84573 -0.880843 -0.218341
upperback -0.866214 -1.17347 0.186164
thorax -0.404001 -0.585319 0.30709
lowerneck -9.47084 1.83547 -4.64343
upperneck 20.6432 1.78126 7.48331
head 7.7797 1.19198 3.42719
rclavicle -2.24005e-014 -1.37161e-014
rhumerus -5.89554 31.213 -52.3808
rradius 106.171
rwrist -45.6556
rhand -33.9863 36.2038
rfingers 7.12502
rthumb -7.16636 6.34514
lclavicle -2.24005e-014 -1.37161e-014
lhumerus -23.061 -2.50874 46.1453
lradius 90.7866
lwrist -4.2736
lhand 2.668 37.8352
lfingers 7.12502
lthumb 28.1433 65.7431
rfemur -20.2567 24.9312 16.8406
rtibia 23.5543
rfoot -18.6162 -36.935
rtoes 28.8878
lfemur -20.0426 -25.4381 -13.3525
ltibia 19.6802
lfoot -13.8337 25.1752
ltoes -1.00568
930
root 11.4095 16.5671 -11.4146 9.24485 -3.75015 0.966335
lowerback -0.851734 -0.925325 -0.126117
upperback -0.837486 -1.23335 0.138761
thorax -0.373814 -0.615936 0.206273
lowerneck -9.44941 1.90684 -4.54561
upperneck 20.5129 1.85974 7.51964
head 7.72819 1.23955 3.42527
rclavicle -1.01629e-014 8.94531e-015
rhumerus -5.73333 31.0966 -52.5128
rradius 106.182
rwrist -45.7069
rhand -33.8279 35.453
rfingers 7.12502
rthumb -7.01347 5.58919
lclavicle -1.01629e-014 8.94531e-015
lhumerus -23.3856 -2.52247 45.9045
lradius 90.9092
lwrist -4.45584
lhand 2.70144 37.6719
lfingers 7.12502
lthumb 28.1752 65.5745
rfemur -20.2302 24.9836 16.8945
rtibia 23.5333
rfoot -19.1497 -36.7349
rtoes 29.5687
lfemur -20.0622 -25.6101 -13.2656
ltibia 19.7022
lfoot -14.0989 25.238
ltoes -0.249087
